<svg xmlns="http://www.w3.org/2000/svg" xmlns:xlink="http://www.w3.org/1999/xlink" width="1000px" height="430px" viewBox="-0.173611 -0.000679996 1000.35 430.001" preserveAspectRatio="xMidYMid meet" ><defs id="svgEditorDefs"><polygon id="svgEditorShapeDefs" fill="khaki" stroke="black" style="vector-effect: non-scaling-stroke; stroke-width: 1px;"/></defs><rect id="svgEditorBackground" x="0" y="0" width="1000" height="430" style="fill: none; stroke: none;"/><rect x="288.0000610351272" y="321.65390014646994" stroke="black" id="e1_rectangle" style="stroke-width: 1px;" width="328" height="39" fill="#FDF5E6"/><text fill="#595959" x="426" y="315.654" id="e15_texte" style="font-family: Arial; font-size: 12.4px;" dx="" dy="">Queue</text><text fill="black" x="298" y="345.654" id="queue" style="font-family: Georgia; font-size: 13.2px;">Empty</text><rect x="133.66372680668783" y="141.370040893576" stroke="black" id="e133_rectangle" style="stroke-width: 1px;" width="328" height="39" fill="#E6E6E6" transform="matrix(0.80545 0 0 1 85.983 -1.42109e-14)" ry="0" rx="0"/><rect x="492.134" y="142.352" stroke="black" id="e146_rectangle" style="stroke-width: 1px;" width="328" height="39" fill="lavender" transform="matrix(0.811172 0 0 1 91.0492 -1.42109e-14)" ry="0" rx="0"/><text fill="#666666" x="309.635" y="133.667" id="e170_texte" style="font-family: Arial; font-size: 12.4px;">tmp[p1]</text><text fill="#595959" x="603.333" y="136.639" id="e182_texte" style="font-family: Arial; font-size: 12.4px;">tmp[p2]</text><text fill="black" x="205.579" y="162.385" id="tmp[p1]" style="font-family: Georgia; font-size: 13.2px;">Empty</text><text fill="black" x="499.134" y="165.352" id="tmp[p2]" style="font-family: Georgia; font-size: 13.2px;">Empty</text><circle id="e261_circle" cx="355.64715576172097" cy="240.9911346436097" stroke="black" style="stroke-width: 1px;" r="45" fill="#D9D9D9" transform="matrix(0.895851 0 0 0.895851 25.2996 19.9543)"/><circle id="e274_circle" cx="603.0377197265625" cy="238.8529510498047" stroke="black" style="stroke-width: 1px;" r="45" fill="lavender" transform="matrix(0.862419 0.0262553 -0.0262553 0.862419 103.977 10.2621)"/><text fill="#4D4D4D" x="326.311" y="288.366" id="e339_texte" style="font-family: Arial; font-size: 12.6px;" dx="" dy="">pc[p1]</text><text fill="#4D4D4D" x="599.927" y="285.37" id="pc[p2]_text" style="font-family: Arial; font-size: 12.6px;" dx="" dy="">pc[p2]</text><text fill="mediumblue" x="333.649" y="242.598" id="pc[p1]" style="font-family: Georgia; font-size: 20.6px;" dx="" dy="">rs</text><text fill="mediumblue" x="607.268" y="237.588" id="pc[p2]" style="font-family: Georgia; font-size: 20.6px;" dx="" dy="">rs</text></svg>